<?xml version="1.0" encoding="UTF-8"?><svg id="Layer_2" xmlns="http://www.w3.org/2000/svg" xmlns:xlink="http://www.w3.org/1999/xlink" viewBox="0 0 164.99 99.92"><defs><linearGradient id="Fading_Sky" x1="143.81" y1="39.36" x2="145.9" y2="39.36" gradientUnits="userSpaceOnUse"><stop offset="0" stop-color="#2484c6"/><stop offset="1" stop-color="#2484c6" stop-opacity="0"/></linearGradient><linearGradient id="Orange_Yellow" x1="151.62" y1="40.65" x2="153.75" y2="40.65" gradientUnits="userSpaceOnUse"><stop offset="0" stop-color="#fff33b"/><stop offset=".04" stop-color="#fee62d"/><stop offset=".12" stop-color="#fdd51b"/><stop offset=".2" stop-color="#fdca0f"/><stop offset=".28" stop-color="#fdc70c"/><stop offset=".67" stop-color="#f3903f"/><stop offset=".89" stop-color="#ed683c"/><stop offset="1" stop-color="#e93e3a"/></linearGradient></defs><g id="Layer_1-2"><text transform="translate(17.63 5.15)" fill="#231f20" font-family="ArialMT, Arial" font-size="6"><tspan x="0" y="0">number of arginylation sites in human proteomes</tspan></text><text transform="translate(0 32.85)" fill="#231f20" font-family="ArialMT, Arial" font-size="6"><tspan x="0" y="0">27</tspan></text><text transform="translate(7.78 26.88)" fill="#231f20" font-family="ArialMT, Arial" font-size="6"><tspan x="0" y="0">34</tspan></text><text transform="translate(15.57 22.4)" fill="#231f20" font-family="ArialMT, Arial" font-size="6"><tspan x="0" y="0">36</tspan></text><text transform="translate(58.91 39.52)" fill="#231f20" font-family="ArialMT, Arial" font-size="6"><tspan x="0" y="0">21</tspan></text><text transform="translate(66.92 47.21)" fill="#231f20" font-family="ArialMT, Arial" font-size="6"><tspan x="0" y="0" letter-spacing="-.07em">1</tspan><tspan x="2.89" y="0">1</tspan></text><text transform="translate(74.48 28.39)" fill="#231f20" font-family="ArialMT, Arial" font-size="6"><tspan x="0" y="0">31</tspan></text><text transform="translate(82.26 42.07)" fill="#231f20" font-family="ArialMT, Arial" font-size="6"><tspan x="0" y="0">16</tspan></text><text transform="translate(90.04 15.23)" fill="#231f20" font-family="ArialMT, Arial" font-size="6"><tspan x="0" y="0">46</tspan></text><text transform="translate(107.82 14.78)" fill="#231f20" font-family="ArialMT, Arial" font-size="6"><tspan x="0" y="0">47</tspan></text><text transform="translate(125.61 28.61)" fill="#231f20" font-family="ArialMT, Arial" font-size="6"><tspan x="0" y="0">32</tspan></text><text transform="translate(141.17 17.25)" fill="#231f20" font-family="ArialMT, Arial" font-size="6"><tspan x="0" y="0">45</tspan></text><text transform="translate(148.95 19.83)" fill="#231f20" font-family="ArialMT, Arial" font-size="6"><tspan x="0" y="0">42</tspan></text><text transform="translate(156.74 14.2)" fill="#231f20" font-family="ArialMT, Arial" font-size="6"><tspan x="0" y="0">48</tspan></text><text transform="translate(5.15 86.91) rotate(-90)" fill="#231f20" font-family="ArialMT, Arial" font-size="6"><tspan x="0" y="0">iPSC_CF</tspan></text><text transform="translate(13.01 74.58) rotate(-90)" fill="#231f20" font-family="ArialMT, Arial" font-size="6"><tspan x="0" y="0">iPSC</tspan></text><text transform="translate(20.87 88.24) rotate(-90)" fill="#231f20" font-family="ArialMT, Arial" font-size="6"><tspan x="0" y="0">iPSC_CM</tspan></text><text transform="translate(113.75 75.58) rotate(-90)" fill="#231f20" font-family="ArialMT, Arial" font-size="6"><tspan x="0" y="0">heart</tspan></text><text transform="translate(131.61 81.92) rotate(-90)" fill="#231f20" font-family="ArialMT, Arial" font-size="6"><tspan x="0" y="0">brain_1</tspan></text><text transform="translate(147.32 86.92) rotate(-90)" fill="#231f20" font-family="ArialMT, Arial" font-size="6"><tspan x="0" y="0">brain_PD</tspan></text><text transform="translate(155.18 91.25) rotate(-90)" fill="#231f20" font-family="ArialMT, Arial" font-size="6"><tspan x="0" y="0">brain_PDD</tspan></text><text transform="translate(64.45 78.24) rotate(-90)" fill="#231f20" font-family="ArialMT, Arial" font-size="6"><tspan x="0" y="0">MCF7</tspan></text><text transform="translate(72.31 88.25) rotate(-90)" fill="#231f20" font-family="ArialMT, Arial" font-size="6"><tspan x="0" y="0">HCC2935</tspan></text><text transform="translate(80.17 79.59) rotate(-90)" fill="#231f20" font-family="ArialMT, Arial" font-size="6"><tspan x="0" y="0">H1437</tspan></text><text transform="translate(88.03 75.92) rotate(-90)" fill="#231f20" font-family="ArialMT, Arial" font-size="6"><tspan x="0" y="0">A549</tspan></text><text transform="translate(33.35 47.37)" fill="#231f20" font-family="ArialMT, Arial" font-size="6"><tspan x="0" y="0">12</tspan></text><text transform="translate(38.73 99.92) rotate(-90)" fill="#231f20" font-family="ArialMT, Arial" font-size="6"><tspan x="0" y="0">HEK293T_KO</tspan></text><text transform="translate(95.89 76.25) rotate(-90)" fill="#231f20" font-family="ArialMT, Arial" font-size="6"><tspan x="0" y="0">HeLa</tspan></text><text transform="translate(163.04 86.92) rotate(-90)" fill="#231f20" font-family="ArialMT, Arial" font-size="6"><tspan x="0" y="0">brain_AD</tspan></text><polygon points="2 35.42 4.13 35.42 4.13 59.01 2 59.01 2 35.42 2 35.42" fill="#231f20"/><polygon points="9.83 29.31 11.96 29.31 11.96 59.01 9.83 59.01 9.83 29.31 9.83 29.31" fill="#ed1c24"/><polygon points="17.66 27.54 19.79 27.54 19.79 59.01 17.66 59.01 17.66 27.54 17.66 27.54" fill="#fff200"/><polygon points="35.49 48.49 37.62 48.49 37.62 59.01 35.49 59.01 35.49 48.49 35.49 48.49" fill="#00a651"/><polygon points="43.34 52.89 45.43 52.89 45.43 59.01 43.34 59.01 43.34 52.89 43.34 52.89" fill="#a7a9ac"/><polygon points="61.17 40.65 63.26 40.65 63.26 59.01 61.17 59.01 61.17 40.65 61.17 40.65" fill="#00aeef"/><polygon points="68.98 49.4 71.11 49.4 71.11 59.01 68.98 59.01 68.98 49.4 68.98 49.4" fill="#2e3192"/><polygon points="76.81 31.92 78.94 31.92 78.94 59.01 76.81 59.01 76.81 31.92 76.81 31.92" fill="#ec008c"/><polygon points="84.64 45.03 86.77 45.03 86.77 59.01 84.64 59.01 84.64 45.03 84.64 45.03" fill="#ef4136"/><polygon points="92.47 18.81 94.6 18.81 94.6 59.01 92.47 59.01 92.47 18.81 92.47 18.81" fill="#414042"/><polygon points="110.3 17.93 112.43 17.93 112.43 59.01 110.3 59.01 110.3 17.93 110.3 17.93" fill="#f7941d"/><polygon points="128.15 31.05 130.24 31.05 130.24 59.01 128.15 59.01 128.15 31.05 128.15 31.05" fill="#9e1f63"/><polygon points="135.98 45.03 138.07 45.03 138.07 59.01 135.98 59.01 135.98 45.03 135.98 45.03" fill="#f1f2f2"/><polygon points="143.81 19.71 145.9 19.71 145.9 59.01 143.81 59.01 143.81 19.71 143.81 19.71" fill="url(#Fading_Sky)"/><polygon points="151.62 22.3 153.75 22.3 153.75 59.01 151.62 59.01 151.62 22.3 151.62 22.3" fill="url(#Orange_Yellow)"/><polygon points="159.45 17.06 161.58 17.06 161.58 59.01 159.45 59.01 159.45 17.06 159.45 17.06" fill="#8dc63f"/><text transform="translate(42.8 48.4)" fill="#231f20" font-family="ArialMT, Arial" font-size="6"><tspan x="0" y="0">7</tspan></text><text transform="translate(133.39 41.67)" fill="#231f20" font-family="ArialMT, Arial" font-size="6"><tspan x="0" y="0">16</tspan></text><text transform="translate(139.46 81.92) rotate(-90)" fill="#231f20" font-family="ArialMT, Arial" font-size="6"><tspan x="0" y="0">brain_2</tspan></text><text transform="translate(46.59 87.81) rotate(-90)" fill="#231f20" font-family="ArialMT, Arial" font-size="6"><tspan x="0" y="0">HEK293</tspan><tspan x="22.35" y="0" letter-spacing="-.02em">T</tspan></text></g></svg>