<?xml version="1.0" encoding="UTF-8"?><svg id="Layer_1" xmlns="http://www.w3.org/2000/svg" viewBox="0 0 300 110"><polygon points="84.07 19.9 215.62 20.76 215.62 99.33 157.74 99.33 142.53 99.33 84.07 99.33 84.07 19.9" fill="#bbbdbf" opacity=".5" stroke-width="0"/><polygon points="87.37 23.35 136.96 23.48 136.96 35.88 115.15 35.88 109.41 35.88 87.37 35.88 87.37 23.35" fill="#ec1c24" stroke-width="0"/><text transform="translate(88.35 31.13)" fill="#fff" font-family="ArialMT, Arial" font-size="6"><tspan x="0" y="0">standard peptides</tspan></text><polygon points="172.77 83.48 212.63 83.61 212.63 96.01 195.09 96.01 190.48 96.01 172.77 96.01 172.77 83.48" fill="#2e3191" stroke-width="0"/><text transform="translate(173.75 91.26)" fill="#fff" font-family="ArialMT, Arial" font-size="6"><tspan x="0" y="0">mouse tissues</tspan></text><polygon points="129.33 70.95 162.94 71.08 162.94 83.48 148.15 83.48 144.26 83.48 129.33 83.48 129.33 70.95" fill="#00adee" stroke-width="0"/><text transform="translate(130.31 78.72)" fill="#231f20" font-family="ArialMT, Arial" font-size="6"><tspan x="0" y="0">human cells</tspan></text><polygon points="87.37 58.41 124.33 58.55 124.33 70.95 108.07 70.95 103.79 70.95 87.37 70.95 87.37 58.41" fill="#00a551" stroke-width="0"/><text transform="translate(88.35 66.19)" fill="#231f20" font-family="ArialMT, Arial" font-size="6"><tspan x="0" y="0">pure proteins</tspan></text><polygon points="122.37 40.88 212.63 41.02 212.63 53.41 172.92 53.41 162.48 53.41 122.37 53.41 122.37 40.88" fill="#fff100" stroke-width="0"/><text transform="translate(123.35 48.66)" fill="#231f20" font-family="ArialMT, Arial" font-size="6"><tspan x="0" y="0">whole-proteome peptide mixtures</tspan></text><text transform="translate(98.76 12.99)" fill="#231f20" font-family="ArialMT, Arial" font-size="8"><tspan x="0" y="0">samples arginylated for</tspan><tspan x="82.71" y="0" letter-spacing="-.06em"> </tspan><tspan x="84.49" y="0">ABA</tspan><tspan x="100.5" y="0" letter-spacing="-.02em">P</tspan></text><polygon points="167.94 63.87 208.07 64 208.07 76.4 190.41 76.4 185.77 76.4 167.94 76.4 167.94 63.87" fill="#eb008b" stroke-width="0"/><text transform="translate(168.92 71.65)" fill="#fff" font-family="ArialMT, Arial" font-size="6"><tspan x="0" y="0">human tissues</tspan></text></svg>