<?xml version="1.0" encoding="UTF-8"?><svg id="Layer_1" xmlns="http://www.w3.org/2000/svg" viewBox="0 0 300 110"><polygon points="39.45 29.08 261.45 29.8 261.45 96.08 163.78 96.08 138.1 96.08 39.45 96.08 39.45 29.08" fill="#bbbdbf" opacity=".5" stroke-width="0"/><polygon points="178.11 38.92 216 39.06 216 51.46 199.33 51.46 194.94 51.46 178.11 51.46 178.11 38.92" fill="#00a551" stroke-width="0"/><polygon points="178.11 56.17 202.81 56.31 202.81 68.71 191.94 68.71 189.08 68.71 178.11 68.71 178.11 56.17" fill="#2e3191" stroke-width="0"/><polygon points="178.11 72.73 216 72.87 216 85.26 199.33 85.26 194.94 85.26 178.11 85.26 178.11 72.73" fill="#eb008b" stroke-width="0"/><polygon points="229.61 38.92 258.47 39.06 258.47 51.46 245.77 51.46 242.43 51.46 229.61 51.46 229.61 38.92" fill="#be1e2d" stroke-width="0"/><polygon points="229.61 73.49 258.47 73.63 258.47 86.03 245.77 86.03 242.43 86.03 229.61 86.03 229.61 73.49" fill="#be1e2d" stroke-width="0"/><polygon points="42.67 56.32 89.68 56.45 89.68 68.85 69 68.85 63.56 68.85 42.67 68.85 42.67 56.32" fill="#ec1c24" stroke-width="0"/><polygon points="104.17 78.75 141.12 78.88 141.12 91.28 124.87 91.28 120.59 91.28 104.17 91.28 104.17 78.75" fill="#00adee" stroke-width="0"/><polygon points="104.17 35.08 141.12 35.21 141.12 47.61 124.87 47.61 120.59 47.61 104.17 47.61 104.17 35.08" fill="#fff100" stroke-width="0"/><g id="text1734"><text transform="translate(43.29 64.55)" fill="#fff" font-family="ArialMT, Arial" font-size="6" isolation="isolate"><tspan x="0" y="0">start visualization</tspan></text></g><g id="text1734-2"><text transform="translate(113.46 43.56)" fill="#231f20" font-family="ArialMT, Arial" font-size="6" isolation="isolate"><tspan x="0" y="0">search</tspan></text></g><g id="text1734-3"><text transform="translate(114.62 87)" fill="#231f20" font-family="ArialMT, Arial" font-size="6" isolation="isolate"><tspan x="0" y="0">select</tspan></text></g><line x1="152.81" y1="62.55" x2="176.43" y2="62.55" fill="#231f20" stroke-width="0"/><line x1="152.81" y1="62.55" x2="173.42" y2="62.55" fill="none" stroke="#231f20" stroke-miterlimit="10" stroke-width=".5"/><path d="M176.43,62.55c-1.42.53-3.18,1.43-4.27,2.38l.86-2.38-.86-2.38c1.09.95,2.85,1.85,4.27,2.38Z" fill="#231f20" stroke-width="0"/><text transform="translate(180.63 47.19)" fill="#fff" font-family="ArialMT, Arial" font-size="6"><tspan x="0" y="0">MS1 spectra</tspan></text><text transform="translate(179.58 64.04)" fill="#fff" font-family="ArialMT, Arial" font-size="6"><tspan x="0" y="0">H/</tspan><tspan x="6" y="0" letter-spacing="-.04em">L</tspan><tspan x="9.11" y="0" xml:space="preserve"> ratio</tspan></text><text transform="translate(180.63 81)" fill="#fff" font-family="ArialMT, Arial" font-size="6"><tspan x="0" y="0">MS2 spectra</tspan></text><line x1="142.78" y1="79.92" x2="152.81" y2="62.56" fill="#231f20" stroke="#231f20" stroke-miterlimit="10" stroke-width=".5"/><line x1="152.81" y1="62.17" x2="142.4" y2="44.15" fill="#231f20" stroke="#231f20" stroke-miterlimit="10" stroke-width=".5"/><text transform="translate(231.19 47.19)" fill="#fff" font-family="ArialMT, Arial" font-size="6"><tspan x="0" y="0">download</tspan></text><text transform="translate(231.19 81.76)" fill="#fff" font-family="ArialMT, Arial" font-size="6"><tspan x="0" y="0">download</tspan></text><line x1="218.13" y1="45.19" x2="228.13" y2="45.19" fill="#231f20" stroke-width="0"/><line x1="218.13" y1="45.19" x2="225.11" y2="45.19" fill="none" stroke="#231f20" stroke-miterlimit="10" stroke-width=".5"/><path d="M228.13,45.19c-1.42.53-3.18,1.43-4.27,2.38l.86-2.38-.86-2.38c1.09.95,2.85,1.85,4.27,2.38Z" fill="#231f20" stroke-width="0"/><line x1="218.13" y1="79.89" x2="228.13" y2="79.89" fill="#231f20" stroke-width="0"/><line x1="218.13" y1="79.89" x2="225.11" y2="79.89" fill="none" stroke="#231f20" stroke-miterlimit="10" stroke-width=".5"/><path d="M228.13,79.89c-1.42.53-3.18,1.43-4.27,2.38l.86-2.38-.86-2.38c1.09.95,2.85,1.85,4.27,2.38Z" fill="#231f20" stroke-width="0"/><line x1="91.68" y1="62.17" x2="101.7" y2="44.81" fill="#231f20" stroke-width="0"/><line x1="91.68" y1="62.17" x2="100.2" y2="47.42" fill="none" stroke="#231f20" stroke-miterlimit="10" stroke-width=".5"/><path d="M101.7,44.81c-.25,1.49-.36,3.47-.08,4.89l-1.63-1.93-2.49-.44c1.37-.47,3.03-1.55,4.2-2.51Z" fill="#231f20" stroke-width="0"/><line x1="102.09" y1="80.58" x2="91.68" y2="62.56" fill="#231f20" stroke-width="0"/><line x1="100.58" y1="77.97" x2="91.68" y2="62.56" fill="none" stroke="#231f20" stroke-miterlimit="10" stroke-width=".5"/><path d="M102.09,80.58c-.25-1.49-.36-3.47-.08-4.89l-1.63,1.93-2.49.44c1.37.47,3.03,1.55,4.2,2.51Z" fill="#231f20" stroke-width="0"/><line x1="166.41" y1="62.17" x2="176.43" y2="44.81" fill="#231f20" stroke-width="0"/><line x1="166.41" y1="62.17" x2="174.92" y2="47.42" fill="none" stroke="#231f20" stroke-miterlimit="10" stroke-width=".5"/><path d="M176.43,44.81c-.25,1.49-.36,3.47-.08,4.89l-1.63-1.93-2.49-.44c1.37-.47,3.03-1.55,4.2-2.51Z" fill="#231f20" stroke-width="0"/><line x1="176.43" y1="80.58" x2="166.03" y2="62.56" fill="#231f20" stroke-width="0"/><line x1="174.92" y1="77.97" x2="166.03" y2="62.56" fill="none" stroke="#231f20" stroke-miterlimit="10" stroke-width=".5"/><path d="M176.43,80.58c-.25-1.49-.36-3.47-.08-4.89l-1.63,1.93-2.49.44c1.37.47,3.03,1.55,4.2,2.51Z" fill="#231f20" stroke-width="0"/><text transform="translate(98.79 15.91)" fill="#231f20" font-family="ArialMT, Arial" font-size="8"><tspan x="0" y="0">website functions and visualization</tspan></text></svg>