<?xml version="1.0" encoding="UTF-8"?><svg id="Layer_1" xmlns="http://www.w3.org/2000/svg" viewBox="0 0 300 110"><polygon points="74.26 14.03 224.26 15.05 224.26 107.55 158.26 107.55 140.91 107.55 74.26 107.55 74.26 14.03" fill="#bbbdbf" opacity=".5" stroke-width="0"/><text transform="translate(88.83 37.11)" fill="#231f20" font-family="ArialMT, Arial" font-size="6"><tspan x="0" y="0">27</tspan></text><text transform="translate(93.64 31.15)" fill="#231f20" font-family="ArialMT, Arial" font-size="6"><tspan x="0" y="0">34</tspan></text><text transform="translate(100.27 26.67)" fill="#231f20" font-family="ArialMT, Arial" font-size="6"><tspan x="0" y="0">36</tspan></text><text transform="translate(123.43 43.79)" fill="#231f20" font-family="ArialMT, Arial" font-size="6"><tspan x="0" y="0">21</tspan></text><text transform="translate(130.98 52.15)" fill="#231f20" font-family="ArialMT, Arial" font-size="6"><tspan x="0" y="0" letter-spacing="-.07em">1</tspan><tspan x="2.89" y="0">1</tspan></text><text transform="translate(138.18 40.51)" fill="#231f20" font-family="ArialMT, Arial" font-size="6"><tspan x="0" y="0">25</tspan></text><text transform="translate(143.67 47.96)" fill="#231f20" font-family="ArialMT, Arial" font-size="6"><tspan x="0" y="0">16</tspan></text><text transform="translate(151.5 25.04)" fill="#231f20" font-family="ArialMT, Arial" font-size="6"><tspan x="0" y="0">42</tspan></text><text transform="translate(168.54 20.73)" fill="#231f20" font-family="ArialMT, Arial" font-size="6"><tspan x="0" y="0">47</tspan></text><text transform="translate(185.01 34.15)" fill="#231f20" font-family="ArialMT, Arial" font-size="6"><tspan x="0" y="0">32</tspan></text><text transform="translate(191.59 22.64)" fill="#231f20" font-family="ArialMT, Arial" font-size="6"><tspan x="0" y="0">45</tspan></text><text transform="translate(198.33 25.04)" fill="#231f20" font-family="ArialMT, Arial" font-size="6"><tspan x="0" y="0">42</tspan></text><text transform="translate(203.86 20.4)" fill="#231f20" font-family="ArialMT, Arial" font-size="6"><tspan x="0" y="0">48</tspan></text><path d="M96.2,24.25h.87-.87ZM96.2,28.25h.87-.87ZM96.2,32.28h.87-.87ZM96.2,36.31h.87-.87ZM96.2,40.31h.87-.87ZM96.2,44.34h.87-.87ZM96.2,48.32h.87-.87ZM96.2,52.35h.87-.87ZM96.2,56.38h.87-.87ZM96.2,60.38h.87-.87ZM96.2,64.41h.87-.87Z" fill="#fff" stroke-width="0"/><text transform="translate(93.19 91.18) rotate(-90)" fill="#231f20" font-family="ArialMT, Arial" font-size="6"><tspan x="0" y="0">iPSC_CF</tspan></text><text transform="translate(99.92 79.84) rotate(-90)" fill="#231f20" font-family="ArialMT, Arial" font-size="6"><tspan x="0" y="0">iPSC</tspan></text><text transform="translate(106.64 92.51) rotate(-90)" fill="#231f20" font-family="ArialMT, Arial" font-size="6"><tspan x="0" y="0">iPSC_CM</tspan></text><text transform="translate(173.69 79.85) rotate(-90)" fill="#231f20" font-family="ArialMT, Arial" font-size="6"><tspan x="0" y="0">heart</tspan></text><text transform="translate(190.42 79.52) rotate(-90)" fill="#231f20" font-family="ArialMT, Arial" font-size="6"><tspan x="0" y="0">brain</tspan></text><text transform="translate(197.14 101.85) rotate(-90)" fill="#231f20" font-family="ArialMT, Arial" font-size="6"><tspan x="0" y="0">brain with PD</tspan></text><text transform="translate(203.86 106.19) rotate(-90)" fill="#231f20" font-family="ArialMT, Arial" font-size="6"><tspan x="0" y="0">brain with PDD</tspan></text><text transform="translate(130.08 82.51) rotate(-90)" fill="#231f20" font-family="ArialMT, Arial" font-size="6"><tspan x="0" y="0">MCF7</tspan></text><text transform="translate(136.8 92.52) rotate(-90)" fill="#231f20" font-family="ArialMT, Arial" font-size="6"><tspan x="0" y="0">HCC2935</tspan></text><text transform="translate(143.53 83.85) rotate(-90)" fill="#231f20" font-family="ArialMT, Arial" font-size="6"><tspan x="0" y="0">H1437</tspan></text><text transform="translate(150.25 80.19) rotate(-90)" fill="#231f20" font-family="ArialMT, Arial" font-size="6"><tspan x="0" y="0">A549</tspan></text><text transform="translate(74.82 9.73)" fill="#231f20" font-family="ArialMT, Arial" font-size="8"><tspan x="0" y="0">No. arginylation sites in human proteomes</tspan></text><rect x="207.45" y="21.68" width="2.14" height="41.59" fill="#8bc53f" stroke-width="0"/><rect x="200.69" y="26.91" width="2.12" height="36.36" fill="#d6de23" stroke-width="0"/><rect x="193.93" y="24.3" width="2.1" height="38.98" fill="#f9ec31" stroke-width="0"/><rect x="187.14" y="35.58" width="2.14" height="27.69" fill="#faaf40" stroke-width="0"/><rect x="170.37" y="22.59" width="2.14" height="40.68" fill="#f6921e" stroke-width="0"/><rect x="153.61" y="26.91" width="2.12" height="36.36" fill="#f05a28" stroke-width="0"/><rect x="146.83" y="49.43" width="2.14" height="13.85" fill="#ee4036" stroke-width="0"/><rect x="140.06" y="41.61" width="2.14" height="21.66" fill="#eb008b" stroke-width="0"/><rect x="133.31" y="53.75" width="2.1" height="9.52" fill="#2e3191" stroke-width="0"/><rect x="126.53" y="45.08" width="2.12" height="18.19" fill="#00adee" stroke-width="0"/><rect x="102.98" y="32.09" width="2.14" height="31.19" fill="#fff100" stroke-width="0"/><rect x="96.21" y="33.82" width="2.14" height="29.45" fill="#ec1c24" stroke-width="0"/><rect x="89.45" y="39.91" width="2.12" height="23.37" fill="#231f20" stroke-width="0"/><rect x="119.78" y="52.9" width="2.08" height="10.38" fill="#00a551" stroke-width="0"/><text transform="translate(116.67 51.64)" fill="#231f20" font-family="ArialMT, Arial" font-size="6"><tspan x="0" y="0">12</tspan></text><text transform="translate(123.36 92.06) rotate(-90)" fill="#231f20" font-family="ArialMT, Arial" font-size="6"><tspan x="0" y="0">HEK293</tspan><tspan x="22.35" y="0" letter-spacing="-.02em">T</tspan></text><text transform="translate(156.97 80.5) rotate(-90)" fill="#231f20" font-family="ArialMT, Arial" font-size="6"><tspan x="0" y="0">HeLa</tspan></text><text transform="translate(210.58 101.52) rotate(-90)" fill="#231f20" font-family="ArialMT, Arial" font-size="6"><tspan x="0" y="0">brain with</tspan><tspan x="25.68" y="0" letter-spacing="-.06em"> </tspan><tspan x="27.01" y="0">AD</tspan></text></svg>